<svg width="149" height="33" viewBox="0 0 149 33" fill="none" xmlns="http://www.w3.org/2000/svg">
<path d="M9.13162 6.39398H0.0247803L18.8468 21.256L32.5153 10.6517V6.39398H29.0723L18.8468 14.3701L9.13162 6.39398Z" fill="#31B5FF"/>
<path d="M5.75285 10.9138L0.0264893 6.39362V32.1115H32.4756V26.0759H5.69501L5.75285 10.9138Z" fill="#4A3AFF"/>
<path d="M32.4715 26.1045L38.0383 26.1045L38.0385 0.9226L8.86519 0.922597L8.86519 6.44582L32.4715 6.44582L32.4715 26.1045Z" fill="#31B5FF"/>
<path d="M48.2262 26.6007H60.207L60.2314 23.8977H51.2945V18.857H59.7444V16.154H51.2945V11.162H60.2314V8.45898H48.2262V26.6007Z" fill="#1E2F6D"/>
<path d="M76.8091 13.1831C75.0071 13.1831 73.4973 14.0111 72.7181 15.3504C71.8901 13.9867 70.4534 13.1831 68.7001 13.1831C67.1173 13.1831 65.851 13.8406 65.1692 15.0825V13.4754H62.4175V26.6007H65.3396V18.8083C65.3396 16.9819 66.3624 15.8861 67.8965 15.8861C69.455 15.8861 70.4778 16.9819 70.4778 18.8083V26.6007H73.3999V18.8083C73.3999 16.9819 74.447 15.8861 75.9812 15.8861C77.5396 15.8861 78.5624 16.9819 78.5624 18.8083V26.6007H81.4846V18.0777C81.4846 15.1556 79.5365 13.1831 76.8091 13.1831Z" fill="#1E2F6D"/>
<path d="M88.9859 13.1831C86.3803 13.1831 84.1887 14.5712 83.4338 16.568L85.9663 17.8342C86.4534 16.5923 87.5735 15.8131 88.9859 15.8131C90.447 15.8131 91.4454 16.6167 91.4454 17.8342V18.2482L87.1352 19.1736C84.4809 19.758 82.9468 21.0486 82.9468 22.9967C82.9468 25.237 84.7975 26.8929 87.7196 26.8929C89.3025 26.8929 90.6418 26.3085 91.6158 25.1396V26.6007H94.3675V17.8342C94.3675 15.1069 92.1759 13.1831 88.9859 13.1831ZM88.0605 24.5795C86.7943 24.5795 85.9907 23.9708 85.9907 22.9724C85.9907 22.1688 86.6238 21.5356 87.7196 21.2921L91.4454 20.4642V21.3165C91.4454 23.1672 90.0087 24.5795 88.0605 24.5795Z" fill="#1E2F6D"/>
<path d="M96.2312 11.7464H99.1533V8.45898H96.2312V11.7464ZM96.2312 26.6007H99.1533V13.4754H96.2312V26.6007Z" fill="#1E2F6D"/>
<path d="M101.489 26.6007H104.411V8.45898H101.489V26.6007Z" fill="#1E2F6D"/>
<path d="M118.942 19.5632C118.942 16.0809 116.312 13.1831 112.611 13.1831C108.909 13.1831 106.109 16.0809 106.109 20.0259C106.109 23.8734 108.861 26.8929 112.83 26.8929C115.509 26.8929 117.652 25.5292 118.455 23.6542L116.044 22.4853C115.46 23.5568 114.413 24.3117 112.854 24.3117C110.833 24.3117 109.299 22.9724 109.153 20.8781H118.796C118.893 20.4885 118.942 20.0259 118.942 19.5632ZM109.202 18.6135C109.543 16.6897 110.906 15.6183 112.611 15.6183C114.291 15.6183 115.703 16.8602 115.801 18.6135H109.202Z" fill="#1E2F6D"/>
<path d="M126.725 13.3292C125.118 13.3292 123.852 13.865 123.17 15.3017V13.4754H120.418V26.6007H123.34V19.1736C123.34 17.128 124.558 15.9592 126.36 15.9592H127.943V13.3292H126.725Z" fill="#1E2F6D"/>
<path d="M147.407 26.6007L141.636 17.4446L147.334 8.45898H143.876L139.931 14.7173L135.962 8.45898H132.504L138.203 17.4446L132.431 26.6007H135.865L139.931 20.172L143.974 26.6007H147.407Z" fill="#1E2F6D"/>
</svg>
