<svg width="100" height="100" viewBox="0 0 100 100" fill="none" xmlns="http://www.w3.org/2000/svg">
<rect width="100" height="100" fill="white"/>
<g filter="url(#filter0_d)">
<path fill-rule="evenodd" clip-rule="evenodd" d="M84.4698 31.9496C84.2031 27.6536 80.6354 24.2513 76.2722 24.2499C58.7486 24.2443 41.225 24.2435 23.7014 24.2497C19.1793 24.2513 15.5147 27.9181 15.5151 32.4402L15.5164 32.4411C15.5163 32.4546 15.5163 32.4682 15.5163 32.4817V67.5276C15.5163 72.0713 19.1997 75.7547 23.7434 75.7547H76.2596C80.8033 75.7547 84.4867 72.0713 84.4867 67.5276V32.4817L84.4867 32.4623L84.4875 32.4614H84.4867C84.4863 32.2895 84.4806 32.1189 84.4698 31.9496Z" fill="#FF0000" fill-opacity="0.01" shape-rendering="crispEdges"/>
</g>
<rect x="15.5145" y="24.2546" width="68.9704" height="51.5001" rx="8.22709" fill="#FFCC19"/>
<path d="M84.4857 32.4612C77.9585 39.2521 83.5512 33.4335 56.9845 58.3085C53.1985 61.8534 47.2509 61.8571 43.4459 58.3326C20.4111 36.9961 47.5946 62.1755 15.5151 32.4612C27.206 32.4609 72.4578 32.4609 84.4857 32.4612Z" fill="#FFAE00"/>
<path d="M76.2705 24.2499C80.8072 24.2514 84.484 27.9297 84.484 32.4664V32.4664C51.7613 56.1177 81.0632 34.9389 54.8245 53.9037C51.9439 55.9858 47.9718 55.9826 45.0946 53.8958C18.9302 34.9184 48.1538 56.1146 15.5134 32.4402V32.4402C15.5129 27.9181 19.1775 24.2513 23.6996 24.2497C41.2232 24.2435 58.7469 24.2443 76.2705 24.2499Z" fill="#FFDF6C"/>
<defs>
<filter id="filter0_d" x="1.51514" y="16.2454" width="96.9724" height="79.5093" filterUnits="userSpaceOnUse" color-interpolation-filters="sRGB">
<feFlood flood-opacity="0" result="BackgroundImageFix"/>
<feColorMatrix in="SourceAlpha" type="matrix" values="0 0 0 0 0 0 0 0 0 0 0 0 0 0 0 0 0 0 127 0" result="hardAlpha"/>
<feOffset dy="6"/>
<feGaussianBlur stdDeviation="7"/>
<feComposite in2="hardAlpha" operator="out"/>
<feColorMatrix type="matrix" values="0 0 0 0 1 0 0 0 0 0.8 0 0 0 0 0.0980392 0 0 0 0.25 0"/>
<feBlend mode="normal" in2="BackgroundImageFix" result="effect1_dropShadow"/>
<feBlend mode="normal" in="SourceGraphic" in2="effect1_dropShadow" result="shape"/>
</filter>
</defs>
</svg>
